<?xml version="1.0" standalone="no"?>
<!DOCTYPE svg PUBLIC "-//W3C//DTD SVG 20010904//EN"
 "http://www.w3.org/TR/2001/REC-SVG-20010904/DTD/svg10.dtd">
<svg version="1.0" xmlns="http://www.w3.org/2000/svg"
 width="300.000000pt" height="300.000000pt" viewBox="0 0 300.000000 300.000000"
 preserveAspectRatio="xMidYMid meet">
<metadata>
Created by potrace 1.14, written by Peter Selinger 2001-2017
</metadata>
<g transform="translate(0.000000,300.000000) scale(0.100000,-0.100000)"
fill="#000000" stroke="none">
<path d="M491 2761 l-74 -228 -193 -139 c-106 -76 -193 -141 -193 -144 0 -3
86 -68 193 -145 l193 -140 73 -227 c41 -126 75 -228 77 -228 2 0 88 62 191
138 l187 137 245 5 246 5 -74 227 -73 227 74 228 73 228 -245 5 -246 5 -180
131 c-99 72 -185 133 -191 137 -6 4 -38 -79 -83 -222z"/>
<path d="M2245 2853 l-190 -138 -246 -5 -245 -5 73 -228 74 -229 -74 -229 -74
-229 243 0 c239 0 243 0 271 -23 15 -13 102 -77 193 -143 l165 -119 -939 -3
-939 -2 6 -78 c14 -171 83 -348 195 -499 270 -362 797 -471 1199 -247 283 157
483 483 483 787 0 50 15 106 73 282 l72 219 190 139 c105 76 191 142 192 145
1 4 -84 69 -190 145 l-192 138 -75 230 -75 231 -190 -139z"/>
</g>
</svg>
